<svg width="16" height="16" viewBox="0 0 16 16" fill="none" xmlns="http://www.w3.org/2000/svg">
<path d="M2 16V0H10L14 4V16H2Z" fill="url(#paint0_linear_1_523)"/>
<path d="M10 4V0L14 4H10Z" fill="white"/>
<path d="M12.085 5.2998L12.0947 5.49023L12.2002 7.60059L12.21 7.81055H11.5586L11.5352 7.6377C11.4843 7.2715 11.4172 7.0382 11.3477 6.91309L11.2451 6.75684C11.1352 6.6128 11.0039 6.50485 10.8506 6.42969L10.8467 6.42773C10.6462 6.32382 10.3646 6.26367 9.98926 6.26367H8.84668V12.5C8.84668 12.7705 8.86204 12.9818 8.89062 13.1377C8.92041 13.3002 8.95982 13.3736 8.9834 13.3994H8.98242C9.10904 13.5302 9.32099 13.6143 9.65918 13.6143H10.1895V14.2598H5.74707V13.6143H6.28516C6.65126 13.6142 6.86227 13.5104 6.97949 13.3516C7.00255 13.3199 7.03614 13.2418 7.06055 13.0889C7.08401 12.9418 7.09668 12.7466 7.09668 12.5V6.26367H6.15137C5.70853 6.26367 5.42028 6.29489 5.26562 6.3457C5.06679 6.41463 4.89082 6.54866 4.73828 6.75879C4.59319 6.95871 4.49774 7.24302 4.4668 7.62695L4.45215 7.81055H3.78906L3.7998 7.59961L3.91309 5.48926L3.92285 5.2998H12.085Z" fill="#1E1E1E" stroke="#1E1E1E" stroke-width="0.4"/>
<defs>
<linearGradient id="paint0_linear_1_523" x1="8" y1="7" x2="14" y2="1" gradientUnits="userSpaceOnUse">
<stop stop-color="#D9D9D9"/>
<stop offset="1" stop-color="#8C8C8C"/>
</linearGradient>
</defs>
</svg>
